<svg width="10" height="15" viewBox="0 0 10 15" fill="none" xmlns="http://www.w3.org/2000/svg">
<path d="M0.5 7.49577C0.5 7.64257 0.526523 7.77809 0.579568 7.90232C0.638507 8.02654 0.726916 8.14512 0.844794 8.25805L7.73183 14.712C7.93222 14.904 8.17387 15 8.45678 15C8.65128 15 8.82515 14.9548 8.97839 14.8645C9.13752 14.7798 9.26424 14.6612 9.35855 14.5088C9.45285 14.3619 9.5 14.1982 9.5 14.0175C9.5 13.7465 9.39096 13.5065 9.17289 13.2976L2.9666 7.49577L9.17289 1.69396C9.39096 1.48504 9.5 1.24788 9.5 0.982496C9.5 0.79616 9.45285 0.629588 9.35855 0.482778C9.26424 0.335968 9.13752 0.220215 8.97839 0.135517C8.82515 0.0451722 8.65128 0 8.45678 0C8.17387 0 7.93222 0.0931677 7.73183 0.279503L0.844794 6.73348C0.726916 6.84641 0.638507 6.96499 0.579568 7.08922C0.526523 7.21344 0.5 7.34896 0.5 7.49577Z" fill="white"/>
</svg>
